# Blender v2.80 (sub 75) OBJ File: 'tiles.blend'
# www.blender.org
mtllib 7.mtl
o 7_Cube.015
v 0.000000 1.000000 0.000000
v 0.500000 0.000000 0.500000
v -0.500000 0.000000 -0.500000
v -0.500000 0.000000 0.500000
v 0.500000 0.000000 -0.500000
v -0.500000 1.000000 0.000000
v 0.000000 1.000000 0.500000
v 0.500000 1.000000 0.000000
vt 1.000000 1.000000
vt 0.500000 1.000000
vt 1.000000 0.000000
vt 0.000000 -0.000000
vt 0.000000 1.000000
vt 1.000000 1.000000
vt 1.000000 0.000000
vt 0.000000 1.000000
vt 0.000000 0.000000
vt -0.000000 -0.000000
vt 0.000000 1.000000
vt 1.000000 0.000000
vt 1.000000 1.000000
vn -0.8944 0.4472 0.0000
vn 0.0000 0.4472 0.8944
vn 0.0000 0.4472 -0.8944
vn 0.8944 0.4472 0.0000
usemtl Material.017
s off
f 7/1/1 1/2/1 4/3/1
f 4/4/2 1/2/2 6/5/2
f 8/6/2 1/2/2 2/7/2
f 1/2/3 8/8/3 5/9/3
f 2/10/4 1/2/4 7/11/4
f 5/9/3 3/12/3 1/2/3
f 3/12/3 6/13/3 1/2/3
