# Blender v2.80 (sub 75) OBJ File: 'tiles.blend'
# www.blender.org
mtllib 4.mtl
o OuterToDouble_Cube.011
v 0.000000 1.000000 0.000000
v 0.500000 0.000000 0.500000
v -0.500000 1.000000 -0.500000
v -0.500000 0.000000 0.500000
v 0.500000 0.000000 -0.500000
v 0.000000 1.000000 -0.500000
v -0.500000 1.000000 0.000000
v 0.000000 1.000000 0.500000
v 0.500000 1.000000 0.000000
vt -0.000000 1.000000
vt 0.500000 0.500000
vt 0.500000 1.000000
vt 1.000000 1.000000
vt 0.500000 1.000000
vt 1.000000 0.000000
vt 0.000000 1.000000
vt 0.000000 0.000000
vt -0.000000 1.000000
vt 1.000000 1.000000
vt 1.000000 -0.000000
vt 0.000000 0.000000
vt -0.000000 0.500000
vn 0.0000 1.0000 0.0000
vn 0.8944 0.4472 0.0000
vn -0.8944 0.4472 0.0000
vn 0.0000 0.4472 0.8944
vn 0.0000 0.4472 -0.8944
usemtl Material.013
s off
f 3/1/1 1/2/1 6/3/1
f 6/4/2 1/5/2 5/6/2
f 8/7/3 1/5/3 4/8/3
f 4/8/4 1/5/4 7/9/4
f 9/10/4 1/5/4 2/11/4
f 5/6/5 1/5/5 9/10/5
f 2/12/2 1/5/2 8/7/2
f 3/1/1 7/13/1 1/2/1
