# Blender v2.80 (sub 75) OBJ File: 'tiles.blend'
# www.blender.org
mtllib 11.mtl
o SlopeToSingle_Cube.013
v 0.000000 1.000000 0.000000
v 0.500000 0.000000 0.500000
v -0.500000 1.000000 -0.500000
v -0.500000 0.000000 0.500000
v 0.500000 1.000000 -0.500000
v -0.500000 1.000000 0.000000
v 0.000000 1.000000 0.500000
v 0.500000 1.000000 0.000000
vt 0.500000 0.500000
vt 1.000000 0.500000
vt 1.000000 1.000000
vt 0.000000 1.000000
vt 0.500000 1.000000
vt 0.000000 -0.000000
vt 0.000000 1.000000
vt 1.000000 1.000000
vt 1.000000 0.000000
vt 0.000000 -0.000000
vt 0.000000 1.000000
vt 0.000000 0.500000
vn 0.0000 1.0000 0.0000
vn -0.8944 0.4472 0.0000
vn 0.0000 0.4472 0.8944
vn 0.8944 0.4472 0.0000
usemtl Material.015
s off
f 1/1/1 8/2/1 5/3/1
f 7/4/2 1/5/2 4/6/2
f 4/6/3 1/5/3 6/7/3
f 8/8/3 1/5/3 2/9/3
f 2/10/4 1/5/4 7/4/4
f 5/3/1 3/11/1 1/1/1
f 3/11/1 6/12/1 1/1/1
