# Blender v2.80 (sub 75) OBJ File: 'tiles.blend'
# www.blender.org
mtllib 2.mtl
o 2_Cube.006
v 0.500000 0.000000 0.500000
v -0.500000 0.000000 -0.500000
v 0.500000 0.000000 -0.500000
v -0.500000 0.000000 0.500000
v 0.000000 1.000000 0.000000
vt 1.000000 0.000000
vt 0.500000 1.000000
vt 0.000000 0.000000
vt -0.000000 -0.000000
vt 1.000000 -0.000000
vt -0.000000 -0.000000
vt 1.000000 -0.000000
vt 0.000000 0.000000
vt 1.000000 0.000000
vn -0.8944 0.4472 0.0000
vn 0.0000 0.4472 0.8944
vn 0.8944 0.4472 0.0000
vn 0.0000 0.4472 -0.8944
usemtl Material.008
s off
f 4/1/1 5/2/1 2/3/1
f 5/2/2 4/4/2 1/5/2
f 1/6/3 3/7/3 5/2/3
f 3/8/4 2/9/4 5/2/4
