# Blender v2.80 (sub 75) OBJ File: 'tiles.blend'
# www.blender.org
mtllib 8.mtl
o SingleCorner_Cube.017
v 0.000000 1.000000 0.000000
v 0.500000 0.000000 0.500000
v -0.500000 0.000000 -0.500000
v -0.500000 0.000000 0.500000
v 0.500000 0.000000 -0.500000
v 0.000000 1.000000 0.500000
v 0.500000 1.000000 0.000000
vt 0.000000 0.000000
vt 0.500000 1.000000
vt 1.000000 0.000000
vt 1.000000 1.000000
vt 1.000000 0.000000
vt 0.000000 0.000000
vt 0.000000 1.000000
vt 1.000000 0.000000
vt 0.000000 0.000000
vn -0.8944 0.4472 0.0000
vn 0.0000 0.4472 0.8944
vn 0.8944 0.4472 0.0000
vn 0.0000 0.4472 -0.8944
usemtl Material.019
s off
f 4/1/1 1/2/1 3/3/1
f 7/4/2 1/2/2 2/5/2
f 2/6/3 1/2/3 6/7/3
f 1/2/4 5/8/4 3/9/4
f 4/1/1 6/7/1 1/2/1
f 1/2/4 7/4/4 5/8/4
