# Blender v2.80 (sub 75) OBJ File: 'tiles.blend'
# www.blender.org
mtllib 3.mtl
o Outer_Cube.004
v 0.000000 1.000000 0.000000
v 0.500000 0.000000 0.500000
v -0.500000 1.000000 -0.500000
v -0.500000 0.000000 0.500000
v 0.500000 0.000000 -0.500000
v 0.000000 1.000000 -0.500000
v -0.500000 1.000000 0.000000
vt 0.541667 0.833333
vt 0.041667 -0.166667
vt 1.041667 -0.166667
vt 0.041667 0.958333
vt 0.541667 0.458333
vt 0.541667 0.958333
vt 0.458333 0.833333
vt 0.958333 -0.166667
vt 0.958333 0.833333
vt 0.041667 0.833333
vt 0.041667 0.458333
vt -0.041667 -0.166667
vn 0.0000 0.4472 0.8944
vn 0.0000 1.0000 0.0000
vn 0.8944 0.4472 0.0000
usemtl Material.006
s off
f 1/1/1 4/2/1 2/3/1
f 3/4/2 1/5/2 6/6/2
f 1/7/3 5/8/3 6/9/3
f 1/1/1 7/10/1 4/2/1
f 3/4/2 7/11/2 1/5/2
f 1/7/3 2/12/3 5/8/3
