# Blender v2.80 (sub 75) OBJ File: 'tiles.blend'
# www.blender.org
mtllib 6.mtl
o 6_Cube.019
v 0.500000 0.000000 0.500000
v -0.500000 0.000000 -0.500000
v -0.500000 0.000000 0.500000
v 0.500000 0.000000 -0.500000
v 0.000000 1.000000 0.500000
v 0.000000 1.000000 -0.500000
vt 1.000000 1.000000
vt 0.000000 0.000000
vt 1.000000 0.000000
vt 0.000000 1.000000
vt 1.000000 0.000000
vt 1.000000 1.000000
vt 0.000000 1.000000
vt 0.000000 0.000000
vn -0.8944 0.4472 0.0000
vn 0.8944 0.4472 0.0000
usemtl Material.021
s off
f 5/1/1 2/2/1 3/3/1
f 5/4/2 4/5/2 6/6/2
f 5/1/1 6/7/1 2/2/1
f 5/4/2 1/8/2 4/5/2
