# Blender v2.80 (sub 75) OBJ File: 'tiles.blend'
# www.blender.org
mtllib 12.mtl
o T_Cube.015
v 0.000000 1.000000 0.000000
v 0.500000 0.000000 0.500000
v -0.500000 0.000000 -0.500000
v -0.500000 0.000000 0.500000
v 0.500000 0.000000 -0.500000
v -0.500000 1.000000 0.000000
v 0.000000 1.000000 0.500000
v 0.500000 1.000000 0.000000
vt 0.000000 1.000000
vt 0.500000 1.000000
vt 0.000000 -0.000000
vt 0.000000 1.000000
vt 1.000000 1.000000
vt 1.000000 0.000000
vt 1.000000 0.000000
vt -0.000000 -0.000000
vt 0.000000 0.000000
vn -0.8944 0.4472 0.0000
vn 0.0000 0.4472 0.8944
vn 0.0000 0.4472 -0.8944
vn 0.8944 0.4472 0.0000
usemtl Material.017
s off
f 7/1/1 1/2/1 4/3/1
f 4/3/2 1/2/2 6/4/2
f 8/5/2 1/2/2 2/6/2
f 1/2/3 8/5/3 5/7/3
f 2/8/4 1/2/4 7/1/4
f 5/7/3 3/9/3 1/2/3
f 3/9/3 6/4/3 1/2/3
