# Blender v2.80 (sub 75) OBJ File: 'tiles.blend'
# www.blender.org
mtllib 9.mtl
o 9_Cube.012
v 0.000000 1.000000 0.000000
v 0.500000 0.000000 -0.500000
v -0.500000 1.000000 0.500000
v -0.500000 0.000000 -0.500000
v 0.500000 0.000000 0.500000
v 0.000000 1.000000 0.500000
v -0.500000 1.000000 0.000000
v 0.000000 1.000000 -0.500000
vt 1.000000 1.000000
vt 0.500000 1.000000
vt 0.500000 0.500000
vt 0.500000 1.000000
vt 0.000000 0.000000
vt 1.000000 0.000000
vt -0.000000 1.000000
vt -0.000000 -0.000000
vt 1.000000 0.000000
vt 1.000000 1.000000
vt 1.000000 0.500000
vt 0.000000 1.000000
vt 1.000000 1.000000
vn 0.0000 1.0000 0.0000
vn 0.8944 0.4472 0.0000
vn -0.8944 0.4472 0.0000
vn 0.0000 0.4472 -0.8944
usemtl Material.014
s off
f 3/1/1 6/2/1 1/3/1
f 1/4/2 5/5/2 2/6/2
f 8/7/3 4/8/3 1/4/3
f 4/9/4 7/10/4 1/4/4
f 3/1/1 1/3/1 7/11/1
f 5/5/2 1/4/2 6/12/2
f 1/4/2 2/6/2 8/13/2
